<?xml version="1.0" encoding="UTF-8" standalone="no"?>
<svg
   xmlns:dc="http://purl.org/dc/elements/1.1/"
   xmlns:cc="http://creativecommons.org/ns#"
   xmlns:rdf="http://www.w3.org/1999/02/22-rdf-syntax-ns#"
   xmlns:svg="http://www.w3.org/2000/svg"
   xmlns="http://www.w3.org/2000/svg"
   xmlns:sodipodi="http://sodipodi.sourceforge.net/DTD/sodipodi-0.dtd"
   xmlns:inkscape="http://www.inkscape.org/namespaces/inkscape"
   version="1.1"
   id="Capa_1"
   x="0px"
   y="0px"
   width="792px"
   height="792px"
   viewBox="0 0 792 792"
   style="enable-background:new 0 0 792 792;"
   xml:space="preserve"
   sodipodi:docname="crescent.svg"
   inkscape:version="1.0.2-2 (e86c870879, 2021-01-15)"><metadata
   id="metadata44"><rdf:RDF><cc:Work
       rdf:about=""><dc:format>image/svg+xml</dc:format><dc:type
         rdf:resource="http://purl.org/dc/dcmitype/StillImage" /></cc:Work></rdf:RDF></metadata><defs
   id="defs42">
	

		
	
			
		</defs><sodipodi:namedview
   pagecolor="#ffffff"
   bordercolor="#666666"
   borderopacity="1"
   objecttolerance="10"
   gridtolerance="10"
   guidetolerance="10"
   inkscape:pageopacity="0"
   inkscape:pageshadow="2"
   inkscape:window-width="1920"
   inkscape:window-height="1027"
   id="namedview40"
   showgrid="false"
   inkscape:zoom="0.5"
   inkscape:cx="214.68421"
   inkscape:cy="316.33558"
   inkscape:window-x="-8"
   inkscape:window-y="-8"
   inkscape:window-maximized="1"
   inkscape:current-layer="Capa_1"
   inkscape:document-rotation="0" />

<g
   id="g9">
</g>
<g
   id="g11">
</g>
<g
   id="g13">
</g>
<g
   id="g15">
</g>
<g
   id="g17">
</g>
<g
   id="g19">
</g>
<g
   id="g21">
</g>
<g
   id="g23">
</g>
<g
   id="g25">
</g>
<g
   id="g27">
</g>
<g
   id="g29">
</g>
<g
   id="g31">
</g>
<g
   id="g33">
</g>
<g
   id="g35">
</g>
<g
   id="g37">
</g>
<g
   id="g1121"
   style="fill:#000000;fill-opacity:1;stroke:none;stroke-width:2;stroke-miterlimit:4;stroke-dasharray:none;stroke-opacity:1"
   transform="matrix(0.65774723,-0.77030158,0.77030158,0.65774723,-235.90241,510.23318)">
	<g
   id="g1119"
   style="fill:#000000;fill-opacity:1;stroke:none;stroke-width:2;stroke-miterlimit:4;stroke-dasharray:none;stroke-opacity:1">
		<g
   id="g1117"
   style="fill:#000000;fill-opacity:1;stroke:none;stroke-width:2;stroke-miterlimit:4;stroke-dasharray:none;stroke-opacity:1">
			<path
   d="M 402.336,396 C 402.336,225.2 513.191,80.091 668.25,24.527 624.765,8.935 577.986,0 528.957,0 305.167,0 123.75,177.309 123.75,396 c 0,218.716 181.417,396 405.207,396 49.029,0 95.808,-8.935 139.293,-24.527 C 513.191,711.909 402.336,566.8 402.336,396 Z"
   id="path1115"
   style="fill:#000000;fill-opacity:1;stroke:none;stroke-width:1;stroke-miterlimit:4;stroke-dasharray:none;stroke-opacity:1"
   sodipodi:nodetypes="scssscs" />
		</g>
	</g>
</g><path
   style="fill:#666666;stroke-width:2"
   d="M 354.68421,765.08986 C 197.48283,743.87282 67.057802,628.89656 26.905165,476.136 16.791385,437.65818 13.833048,413.6905 13.969618,371.33558 14.10078,330.65756 16.911325,306.9444 25.720162,272.19376 51.04658,172.28163 113.25925,84.78334 200.01598,27.057401 c 9.26589,-6.165308 17.29407,-10.762642 17.84043,-10.216297 0.54634,0.546346 -2.10786,11.231107 -5.89824,23.743916 -12.46614,41.15338 -16.17555,68.5974 -16.05063,118.75056 0.1213,48.69714 3.25892,72.45812 14.87785,112.6688 41.03732,142.0215 159.55992,249.45222 305.8162,277.19656 81.43784,15.4485 173.84322,3.05998 251.104,-33.66476 13.70862,-6.51618 22.97862,-9.92406 22.97862,-8.44748 0,1.36126 -5.75596,14.1237 -12.79102,28.36096 -62.77926,127.05004 -180.5166,211.65352 -319.81142,229.80952 -28.70514,3.7415 -74.98296,3.66572 -103.39756,-0.1694 z"
   id="path25" /></svg>
