<?xml version="1.0" encoding="UTF-8" standalone="no"?>
<svg
   xmlns:dc="http://purl.org/dc/elements/1.1/"
   xmlns:cc="http://creativecommons.org/ns#"
   xmlns:rdf="http://www.w3.org/1999/02/22-rdf-syntax-ns#"
   xmlns:svg="http://www.w3.org/2000/svg"
   xmlns="http://www.w3.org/2000/svg"
   xmlns:sodipodi="http://sodipodi.sourceforge.net/DTD/sodipodi-0.dtd"
   xmlns:inkscape="http://www.inkscape.org/namespaces/inkscape"
   width="24"
   height="24"
   version="1.1"
   id="svg6"
   sodipodi:docname="playNight.svg"
   inkscape:version="1.0.2-2 (e86c870879, 2021-01-15)">
  <metadata
     id="metadata12">
    <rdf:RDF>
      <cc:Work
         rdf:about="">
        <dc:format>image/svg+xml</dc:format>
        <dc:type
           rdf:resource="http://purl.org/dc/dcmitype/StillImage" />
      </cc:Work>
    </rdf:RDF>
  </metadata>
  <defs
     id="defs10" />
  <sodipodi:namedview
     pagecolor="#ffffff"
     bordercolor="#666666"
     borderopacity="1"
     objecttolerance="10"
     gridtolerance="10"
     guidetolerance="10"
     inkscape:pageopacity="0"
     inkscape:pageshadow="2"
     inkscape:window-width="1920"
     inkscape:window-height="1027"
     id="namedview8"
     showgrid="false"
     inkscape:zoom="25.337993"
     inkscape:cx="12"
     inkscape:cy="12.554854"
     inkscape:window-x="-8"
     inkscape:window-y="-8"
     inkscape:window-maximized="1"
     inkscape:current-layer="svg6" />
  <path
     d="M19.484 11.709c.277.16.277.422 0 .582L8.61 18.57c-.277.16-.504.03-.504-.29V5.721c0-.32.227-.451.504-.291z"
     fill="gray"
     id="path2" />
  <path
     d="M11.996 0A12 12 0 000 12a12 12 0 0012 12 12 12 0 0012-12A12 12 0 0012 0a12 12 0 00-.004 0zM12 1.324A10.676 10.676 0 0122.676 12 10.676 10.676 0 0112 22.676 10.676 10.676 0 011.324 12 10.676 10.676 0 0112 1.324z"
     fill="gray"
     id="path4" />
  <path
     style="fill:#ffffff;stroke-width:0.0394664"
     d="M 11.348804,23.954545 C 9.025335,23.848538 6.7114517,23.004187 4.8038551,21.566252 2.1719935,19.58237 0.49026361,16.650123 0.09957314,13.363915 -0.0352645,12.229758 0.0283766,10.765579 0.26291494,9.605942 1.1370175,5.2840807 4.397369,1.7424822 8.6455204,0.50022851 c 1.8349366,-0.53657603 3.8883546,-0.62031833 5.7593006,-0.2348753 3.035608,0.62538058 5.732154,2.41883359 7.470355,4.96847849 1.400238,2.0539105 2.088053,4.2742114 2.090664,6.7487583 8.8e-4,0.83496 -0.03946,1.331584 -0.168294,2.071988 -0.743365,4.271958 -3.7621,7.829464 -7.850687,9.251846 -1.497558,0.520986 -2.93712,0.7239 -4.598055,0.648121 z m 2.071987,-1.355346 c 2.382324,-0.337286 4.474846,-1.37235 6.13929,-3.036795 1.685304,-1.685304 2.721684,-3.803446 3.061808,-6.257688 0.07836,-0.56539 0.06689,-2.150731 -0.01984,-2.742917 C 22.413873,9.2768997 22.084056,8.2386853 21.501358,7.0969875 20.678015,5.4837844 19.431281,4.0954448 17.879221,3.0634427 17.364798,2.7213902 16.273573,2.1687637 15.695634,1.9576139 13.336864,1.095838 10.651498,1.0961244 8.3043659,1.9584021 7.7177524,2.1739093 6.6299808,2.7242511 6.1207786,3.0631552 4.5821236,4.0872215 3.3525748,5.447999 2.5282787,7.0390792 1.9288562,8.1961022 1.5882061,9.2575651 1.3977492,10.561799 c -0.086517,0.592459 -0.097871,2.178407 -0.019638,2.742917 0.2407582,1.737246 0.8016237,3.241655 1.7214981,4.617571 0.4413617,0.660174 0.7787267,1.073529 1.3228176,1.620777 1.7826925,1.793038 4.0736213,2.864931 6.6592401,3.115764 0.50048,0.04855 1.810985,0.01515 2.339124,-0.05963 z"
     id="path14" />
  <path
     style="fill:#ffffff;stroke-width:0.0394664"
     d="M 8.2329425,18.539591 8.1322904,18.438939 V 12.002324 5.5657084 L 8.2329425,5.4650563 c 0.077808,-0.077808 0.1242961,-0.094718 0.2048284,-0.074506 0.131984,0.033126 11.0100841,6.3117587 11.1299161,6.4239767 0.04885,0.04575 0.0888,0.130231 0.0888,0.187797 0,0.05799 -0.03959,0.141081 -0.0888,0.186375 -0.118389,0.10897 -11.0122052,6.395854 -11.1368434,6.427136 -0.07238,0.01817 -0.1229881,-0.0013 -0.1979011,-0.07624 z"
     id="path16" />
</svg>
