<svg xmlns="http://www.w3.org/2000/svg" height="24" width="24">
    <path d="M11.996 0A12 12 0 000 12a12 12 0 0012 12 12 12 0 0012-12A12 12 0 0012 0a12 12 0 00-.004 0z" fill="#faa"/>
    <path fill="red"
          d="M19.484 11.709c.277.16.277.422 0 .582L8.61 18.57c-.277.16-.504.03-.504-.29V5.721c0-.32.227-.451.504-.291z"/>
    <path d="M11.996 0A12 12 0 000 12a12 12 0 0012 12 12 12 0 0012-12A12 12 0 0012 0a12 12 0 00-.004 0zM12 1.324A10.676 10.676 0 0122.676 12 10.676 10.676 0 0112 22.676 10.676 10.676 0 011.324 12 10.676 10.676 0 0112 1.324z"
          fill="red"/>
</svg>
