<?xml version="1.0" encoding="UTF-8" standalone="no"?>
<svg
   xmlns:dc="http://purl.org/dc/elements/1.1/"
   xmlns:cc="http://creativecommons.org/ns#"
   xmlns:rdf="http://www.w3.org/1999/02/22-rdf-syntax-ns#"
   xmlns:svg="http://www.w3.org/2000/svg"
   xmlns="http://www.w3.org/2000/svg"
   xmlns:sodipodi="http://sodipodi.sourceforge.net/DTD/sodipodi-0.dtd"
   xmlns:inkscape="http://www.inkscape.org/namespaces/inkscape"
   height="24"
   width="24"
   version="1.1"
   id="svg6"
   sodipodi:docname="stopNight.svg"
   inkscape:version="1.0.2-2 (e86c870879, 2021-01-15)">
  <metadata
     id="metadata12">
    <rdf:RDF>
      <cc:Work
         rdf:about="">
        <dc:format>image/svg+xml</dc:format>
        <dc:type
           rdf:resource="http://purl.org/dc/dcmitype/StillImage" />
      </cc:Work>
    </rdf:RDF>
  </metadata>
  <defs
     id="defs10" />
  <sodipodi:namedview
     pagecolor="#ffffff"
     bordercolor="#666666"
     borderopacity="1"
     objecttolerance="10"
     gridtolerance="10"
     guidetolerance="10"
     inkscape:pageopacity="0"
     inkscape:pageshadow="2"
     inkscape:window-width="1920"
     inkscape:window-height="1027"
     id="namedview8"
     showgrid="false"
     inkscape:zoom="35.833333"
     inkscape:cx="12"
     inkscape:cy="12"
     inkscape:window-x="-8"
     inkscape:window-y="-8"
     inkscape:window-maximized="1"
     inkscape:current-layer="svg6" />
  <path
     d="M11.996 0A12 12 0 000 12a12 12 0 0012 12 12 12 0 0012-12A12 12 0 0012 0a12 12 0 00-.004 0zM12 1.324A10.676 10.676 0 0122.676 12 10.676 10.676 0 0112 22.676 10.676 10.676 0 011.324 12 10.676 10.676 0 0112 1.324z"
     fill="#b3b3b3"
     id="path2" />
  <path
     fill="#b3b3b3"
     d="M6.094 6.094h11.812v11.812H6.094z"
     id="path4" />
  <path
     style="fill:#ffffff;stroke-width:0.027907"
     d="M 11.693023,23.980033 C 10.467404,23.952235 9.1614047,23.707942 7.9674419,23.283146 5.0787709,22.255395 2.6628961,20.116563 1.2907297,17.372093 0.60547722,16.001519 0.18917014,14.528595 0.05631708,13.004651 c -0.03912975,-0.448853 -0.03912975,-1.560449 0,-2.009302 C 0.3035856,8.1589577 1.5230358,5.5372501 3.5292508,3.5288556 4.965442,2.0911038 6.7221131,1.0534323 8.6752962,0.4890689 9.793826,0.16587486 10.806848,0.02424512 12,0.02424512 c 1.563685,0 2.953805,0.2622179 4.409302,0.83172532 0.374756,0.14663466 1.126853,0.50587036 1.490281,0.71182586 3.410343,1.9326503 5.647521,5.3879244 6.031757,9.3159247 0.05515,0.563777 0.05522,1.666999 1.4e-4,2.234532 -0.271926,2.802137 -1.483003,5.375559 -3.460336,7.352891 -1.48952,1.489521 -3.346836,2.561766 -5.387423,3.110207 -1.0455,0.280995 -2.263781,0.424242 -3.390698,0.398682 z m 1.52093,-1.359723 c 2.515229,-0.306026 4.714856,-1.391101 6.461188,-3.187299 1.672424,-1.720179 2.679202,-3.880648 2.963103,-6.358592 0.04583,-0.399981 0.04583,-1.748857 0,-2.148838 C 22.392911,8.7842696 21.634084,6.9384809 20.320716,5.2883721 19.978314,4.8581805 19.14182,4.0216856 18.711628,3.679284 16.070403,1.5770581 12.709356,0.82911059 9.4579236,1.6200192 7.0903847,2.1959214 4.9483552,3.6018999 3.4848438,5.5406101 2.2925814,7.1199977 1.5950721,8.8891504 1.3617557,10.925581 c -0.045826,0.399981 -0.045826,1.748857 0,2.148838 0.054644,0.47694 0.1400521,0.967098 0.2455665,1.409302 0.6262795,2.624699 2.2167287,4.908996 4.4624452,6.409229 1.4274157,0.953574 3.1753756,1.58089 4.8418606,1.737669 0.176512,0.01661 0.371163,0.03515 0.432558,0.04121 0.254617,0.02512 1.52829,-0.01 1.869767,-0.05152 z"
     id="path14" />
  <path
     style="fill:#ffffff;stroke-width:0.027907"
     d="M 6.1116279,12 V 6.1116279 H 12 17.888372 V 12 17.888372 H 12 6.1116279 Z"
     id="path16" />
</svg>
