<?xml version="1.0" encoding="UTF-8" standalone="no"?>
<svg
   xmlns:dc="http://purl.org/dc/elements/1.1/"
   xmlns:cc="http://creativecommons.org/ns#"
   xmlns:rdf="http://www.w3.org/1999/02/22-rdf-syntax-ns#"
   xmlns:svg="http://www.w3.org/2000/svg"
   xmlns="http://www.w3.org/2000/svg"
   xmlns:sodipodi="http://sodipodi.sourceforge.net/DTD/sodipodi-0.dtd"
   xmlns:inkscape="http://www.inkscape.org/namespaces/inkscape"
   height="32"
   width="32"
   version="1.1"
   id="svg8"
   sodipodi:docname="trashNight.svg"
   inkscape:version="1.0.2-2 (e86c870879, 2021-01-15)">
  <metadata
     id="metadata14">
    <rdf:RDF>
      <cc:Work
         rdf:about="">
        <dc:format>image/svg+xml</dc:format>
        <dc:type
           rdf:resource="http://purl.org/dc/dcmitype/StillImage" />
        <dc:title></dc:title>
      </cc:Work>
    </rdf:RDF>
  </metadata>
  <defs
     id="defs12" />
  <sodipodi:namedview
     pagecolor="#ffffff"
     bordercolor="#666666"
     borderopacity="1"
     objecttolerance="10"
     gridtolerance="10"
     guidetolerance="10"
     inkscape:pageopacity="0"
     inkscape:pageshadow="2"
     inkscape:window-width="1920"
     inkscape:window-height="1027"
     id="namedview10"
     showgrid="false"
     inkscape:zoom="26.875"
     inkscape:cx="16"
     inkscape:cy="10.046512"
     inkscape:window-x="-8"
     inkscape:window-y="-8"
     inkscape:window-maximized="1"
     inkscape:current-layer="svg8" />
  <g
     clip-rule="evenodd"
     fill="#333"
     fill-rule="evenodd"
     id="g6">
    <path
       d="M29.98 6.819A2.99 2.99 0 0027 4.003h-3V3.001a3 3 0 00-3-3H11a3 3 0 00-3 3v1.001H5a2.99 2.99 0 00-2.981 2.816H2v2.183a2 2 0 002 2v17a4 4 0 004 4h16a4 4 0 004-4v-17a2 2 0 002-2V6.819h-.02zM10 3.002a1 1 0 011-1h10a1 1 0 011 1v1H10v-1zm16 25c0 1.102-.898 2-2 2H8c-1.103 0-2-.898-2-2v-17h20v17zm2-20.001v1H4V7.002a1 1 0 011-1h22a1 1 0 011 1v.999z"
       id="path2" />
    <path
       d="M9 28.006h2a1 1 0 001-1v-13a1 1 0 00-1-1H9a1 1 0 00-1 1v13a1 1 0 001 1zm0-14.001h2v13H9v-13zM15 28.006h2a1 1 0 001-1v-13a1 1 0 00-1-1h-2a1 1 0 00-1 1v13a1 1 0 001 1zm0-14.001h2v13h-2v-13zM21 28.006h2a1 1 0 001-1v-13a1 1 0 00-1-1h-2a1 1 0 00-1 1v13a1 1 0 001 1zm0-14.001h2v13h-2v-13z"
       id="path4" />
  </g>
  <path
     style="fill:#ffffff;stroke-width:0.0372093"
     d="M 7.6093023,31.959493 C 6.0786809,31.821127 4.6882612,30.696223 4.2099709,29.209302 4.010283,28.588508 4.0186047,29.004563 4.0186047,19.641638 v -8.664894 l -0.1209303,-5.5e-4 C 3.6886173,10.975244 3.3087577,10.867918 3.0732304,10.743256 2.7679354,10.581666 2.3937859,10.201312 2.2414431,9.8976744 2.0247305,9.4657399 2.0016548,9.2535829 2.0188505,7.8511628 2.0363197,6.4264287 2.0584879,6.2849719 2.3599764,5.6744186 2.6601433,5.0665418 3.1201816,4.6134318 3.7395349,4.3156372 4.3103159,4.0411967 4.2828789,4.0443539 6.2361317,4.0283762 L 7.9885425,4.0140417 8.0112041,3.3000442 C 8.0284566,2.7564762 8.0522318,2.5149923 8.1108078,2.2883721 8.3883092,1.2147711 9.18368,0.41666311 10.288372,0.10331368 L 10.586047,0.0188774 H 16 21.413953 l 0.297675,0.08443628 c 1.104692,0.31334943 1.900063,1.11145742 2.177564,2.18505842 0.05858,0.2266427 0.08235,0.4681159 0.09961,1.0119486 l 0.02267,0.7142743 1.733797,0.013277 c 1.937978,0.014841 1.940886,0.015175 2.518085,0.2900361 0.910095,0.4333849 1.503376,1.2444803 1.672652,2.2867427 0.07679,0.4727784 0.07581,2.4236561 -0.0014,2.7906976 -0.154653,0.7352556 -0.753025,1.3543986 -1.472967,1.5241016 -0.131118,0.03091 -0.292816,0.05644 -0.359327,0.05674 l -0.120929,5.5e-4 v 8.664894 c 0,7.455324 -0.0076,8.708665 -0.05468,8.978461 -0.320842,1.83984 -1.766464,3.179784 -3.606293,3.342663 -0.502702,0.0445 -16.2166554,0.04143 -16.7111187,-0.0033 z M 24.412994,29.974564 c 0.769316,-0.163075 1.399765,-0.786916 1.555491,-1.539186 0.02893,-0.13977 0.04082,-2.710079 0.04082,-8.827907 V 10.976744 H 16 5.9906977 v 8.630727 c 0,6.117828 0.011884,8.688137 0.040818,8.827907 0.1539285,0.743591 0.7839706,1.373359 1.5381696,1.5375 0.3454661,0.07519 16.4889447,0.0768 16.8433087,0.0017 z M 28.011287,7.8604651 28,6.7162791 27.889623,6.5170028 C 27.758332,6.2799665 27.5817,6.1252733 27.353595,6.0475498 27.205384,5.9970493 25.936756,5.9906977 15.99805,5.9906977 3.7191248,5.9906977 4.657776,5.9729533 4.3575306,6.210752 4.2815904,6.2708979 4.1700795,6.4092465 4.1097287,6.5181935 L 4,6.7162791 3.9887127,7.8604651 3.9774255,9.0046512 H 16 28.022575 Z M 22.021098,3.3767442 C 22.007703,2.7700938 22.001568,2.7246779 21.909258,2.5488372 21.793921,2.329132 21.661713,2.1986925 21.432558,2.0785123 L 21.265116,1.9906977 H 16 10.734884 l -0.189396,0.099936 C 10.44132,2.1455984 10.303145,2.2508729 10.238432,2.3245769 10.023173,2.5697428 9.9978474,2.6730634 9.9805276,3.3767442 L 9.9647293,4.0186047 H 16 22.035271 Z"
     id="path16" />
  <path
     style="fill:#ffffff;stroke-width:0.0372093"
     d="M 8.6139535,27.894635 C 8.3887197,27.788093 8.2140847,27.615258 8.1021271,27.388082 L 8.0186047,27.218605 V 20.55814 c 0,-5.559263 0.00851,-6.689749 0.051452,-6.837584 0.061747,-0.212557 0.2889881,-0.482634 0.5019168,-0.59653 0.1497927,-0.08013 0.18503,-0.08217 1.4187242,-0.08217 h 1.2651163 l 0.201696,0.111628 c 0.231363,0.128048 0.425729,0.369763 0.484496,0.602524 0.02698,0.106863 0.03939,2.241115 0.03939,6.774767 0,7.285166 0.01568,6.795493 -0.227033,7.089947 -0.06233,0.07562 -0.191631,0.183517 -0.287334,0.239776 l -0.174005,0.102289 -1.246511,0.0099 c -1.2432547,0.0099 -1.2469982,0.0097 -1.4325585,-0.07808 z M 11.013953,20.502326 V 13.990698 H 9.9906977 8.9674419 v 6.511628 6.511627 h 1.0232558 1.0232553 z"
     id="path18" />
  <path
     style="fill:#ffffff;stroke-width:0.0372093"
     d="m 14.734643,27.94757 c -0.27966,-0.08789 -0.50692,-0.290642 -0.629395,-0.561523 -0.07523,-0.166384 -0.07571,-0.209894 -0.07652,-6.885718 l -8.17e-4,-6.718275 0.09631,-0.193265 c 0.115799,-0.232378 0.334979,-0.429044 0.565821,-0.5077 0.249535,-0.08502 2.370393,-0.08502 2.619928,0 0.230842,0.07866 0.450023,0.275322 0.565821,0.5077 l 0.09631,0.193265 -8.19e-4,6.718275 c -8.11e-4,6.675824 -0.0013,6.719334 -0.07652,6.885718 -0.09267,0.204969 -0.264394,0.389354 -0.462194,0.496283 -0.143144,0.07738 -0.195811,0.08073 -1.376745,0.08751 -0.675348,0.0039 -1.269875,-0.0061 -1.321171,-0.02227 z m 2.270008,-7.445244 V 13.990698 H 16 14.995349 v 6.511628 6.511627 H 16 17.004651 Z"
     id="path20" />
  <path
     style="fill:#ffffff;stroke-width:0.0372093"
     d="m 20.678994,27.928307 c -0.172446,-0.06154 -0.369578,-0.209085 -0.472532,-0.35367 -0.198024,-0.2781 -0.187857,0.102999 -0.187857,-7.041908 0,-4.535024 0.01241,-6.669853 0.03939,-6.776717 0.05877,-0.232761 0.253133,-0.474476 0.484496,-0.602524 l 0.201696,-0.111628 h 1.265116 c 1.233694,0 1.268932,0.002 1.418725,0.08217 0.212928,0.113896 0.440169,0.383973 0.501916,0.59653 0.04295,0.147835 0.05145,1.278321 0.05145,6.837584 v 6.660465 l -0.08352,0.169477 c -0.112243,0.227755 -0.287067,0.400441 -0.511826,0.505567 -0.183069,0.08563 -0.205107,0.087 -1.376745,0.08575 -0.897741,-9.57e-4 -1.225047,-0.01353 -1.330308,-0.05109 z m 2.353564,-7.425981 v -6.511628 h -1.023256 -1.023255 v 6.511628 6.511627 h 1.023255 1.023256 z"
     id="path22" />
</svg>
