<?xml version="1.0" encoding="UTF-8" standalone="no"?>
<svg
   xmlns:dc="http://purl.org/dc/elements/1.1/"
   xmlns:cc="http://creativecommons.org/ns#"
   xmlns:rdf="http://www.w3.org/1999/02/22-rdf-syntax-ns#"
   xmlns:svg="http://www.w3.org/2000/svg"
   xmlns="http://www.w3.org/2000/svg"
   xmlns:sodipodi="http://sodipodi.sourceforge.net/DTD/sodipodi-0.dtd"
   xmlns:inkscape="http://www.inkscape.org/namespaces/inkscape"
   viewBox="0 0 24 24"
   version="1.1"
   id="svg23"
   sodipodi:docname="volume-offNight.svg"
   inkscape:version="1.0.2-2 (e86c870879, 2021-01-15)">
  <metadata
     id="metadata27">
    <rdf:RDF>
      <cc:Work
         rdf:about="">
        <dc:format>image/svg+xml</dc:format>
        <dc:type
           rdf:resource="http://purl.org/dc/dcmitype/StillImage" />
        <dc:title>volume-off</dc:title>
      </cc:Work>
    </rdf:RDF>
  </metadata>
  <sodipodi:namedview
     pagecolor="#ffffff"
     bordercolor="#666666"
     borderopacity="1"
     objecttolerance="10"
     gridtolerance="10"
     guidetolerance="10"
     inkscape:pageopacity="0"
     inkscape:pageshadow="2"
     inkscape:window-width="1920"
     inkscape:window-height="1027"
     id="namedview25"
     showgrid="false"
     inkscape:zoom="35.833333"
     inkscape:cx="12"
     inkscape:cy="12"
     inkscape:window-x="-8"
     inkscape:window-y="-8"
     inkscape:window-maximized="1"
     inkscape:current-layer="svg23" />
  <defs
     id="defs4">
    <style
       id="style2">.cls-1{fill:#fff;opacity:0;}.cls-2{fill:#231f20;}</style>
  </defs>
  <title
     id="title6">volume-off</title>
  <g
     id="Layer_2"
     data-name="Layer 2">
    <g
       id="volume-off">
      <g
         id="volume-off-2"
         data-name="volume-off">
        <rect
           class="cls-1"
           width="24"
           height="24"
           id="rect8" />
        <path
           class="cls-2"
           d="M16.91,14.08l1.44,1.44a6,6,0,0,0-.07-7.15,1,1,0,1,0-1.56,1.26A4,4,0,0,1,16.91,14.08Z"
           id="path10" />
        <path
           class="cls-2"
           d="M21,12a6.51,6.51,0,0,1-1.78,4.39l1.42,1.42A8.53,8.53,0,0,0,23,12a8.75,8.75,0,0,0-3.36-6.77,1,1,0,1,0-1.28,1.54A6.8,6.8,0,0,1,21,12Z"
           id="path12" />
        <path
           class="cls-2"
           d="M15,12.17V4a1,1,0,0,0-1.57-.83L9,6.2Z"
           id="path14" />
        <path
           class="cls-2"
           d="M4.74,7.57H2a1,1,0,0,0-1,1v6.86a1,1,0,0,0,1,1H7l6.41,4.4A1.06,1.06,0,0,0,14,21a1,1,0,0,0,1-1V17.83Z"
           id="path16" />
        <path
           class="cls-2"
           d="M4.71,3.29A1,1,0,0,0,3.29,4.71l16,16a1,1,0,0,0,1.42,0,1,1,0,0,0,0-1.42Z"
           id="path18" />
      </g>
    </g>
  </g>
  <path
     style="fill:#ffffff;stroke-width:0.027907"
     d="m 13.716279,20.948829 c -0.0614,-0.02042 -0.15297,-0.05867 -0.203498,-0.085 -0.05053,-0.02633 -1.535823,-1.039122 -3.300654,-2.250648 L 7.0033434,16.410409 4.3737647,16.402879 1.744186,16.395349 1.6116067,16.334118 C 1.4138188,16.242771 1.1930283,16.019476 1.0988139,15.815508 L 1.0186047,15.64186 V 12 8.3581395 L 1.0988139,8.1844919 C 1.1930283,7.9805241 1.4138188,7.757229 1.6116067,7.665882 1.7421175,7.6056065 1.7674655,7.6045276 3.2362374,7.5967309 l 1.4920514,-0.00792 5.1297882,5.1288501 5.129788,5.128851 -0.0079,1.2 -0.0079,1.2 -0.07861,0.16013 c -0.100675,0.205069 -0.284412,0.388216 -0.484365,0.48281 -0.190011,0.08989 -0.516856,0.1179 -0.692837,0.05938 z"
     id="path29" />
  <path
     style="fill:#ffffff;stroke-width:0.027907"
     d="m 19.711372,20.947526 c -0.06409,-0.02095 -0.15828,-0.06424 -0.209302,-0.09621 -0.05102,-0.03197 -3.755148,-3.722519 -8.231391,-8.20123 C 3.9245498,5.2999079 3.1269849,4.4933896 3.0799813,4.3674419 3.0441136,4.2713331 3.0279533,4.1540827 3.0280559,3.9906977 3.0281804,3.7923317 3.0403826,3.7274565 3.1025726,3.5945163 3.1973971,3.3918151 3.3916273,3.1975261 3.5945163,3.1024237 3.7298907,3.0389682 3.7907708,3.027907 4.0046512,3.027907 c 0.4678823,0 -0.4185973,-0.8431231 8.6967588,8.271413 9.119238,9.118417 8.270683,8.226223 8.270683,8.696029 0,0.21388 -0.01106,0.27476 -0.07452,0.410135 -0.09549,0.203721 -0.290324,0.397983 -0.49154,0.490103 -0.190736,0.08732 -0.51275,0.111398 -0.694664,0.05194 z"
     id="path31" />
  <path
     style="fill:#ffffff;stroke-width:0.027907"
     d="M 12.005176,9.1644636 C 9.574887,6.7483884 9.0448934,6.2084467 9.074943,6.1792295 c 0.020177,-0.019618 1.028778,-0.7145064 2.241336,-1.544197 1.353313,-0.9260019 2.263922,-1.5313042 2.35814,-1.5675091 0.234797,-0.090225 0.541171,-0.067746 0.77493,0.056856 0.20859,0.1111868 0.349223,0.2590408 0.449204,0.4722714 l 0.07354,0.1568375 0.0074,3.2093023 c 0.0041,1.7651163 0.0041,3.6462384 0,4.1802704 l -0.0074,0.970969 z"
     id="path33" />
  <path
     style="fill:#ffffff;stroke-width:0.027907"
     d="M 17.643761,14.783126 16.940286,14.07907 17.080364,13.8 c 0.153304,-0.305419 0.273479,-0.653019 0.352392,-1.019273 0.07289,-0.33829 0.07211,-1.252418 -0.0014,-1.58928 C 17.315753,10.661166 17.106914,10.17599 16.791191,9.7041143 16.563789,9.3642412 16.511474,9.2153686 16.525854,8.9490526 16.5458,8.5796882 16.752639,8.2725948 17.094543,8.1047222 c 0.144315,-0.070857 0.196812,-0.081388 0.403131,-0.080862 0.195552,4.981e-4 0.264388,0.013246 0.391972,0.072589 0.224765,0.1045463 0.339274,0.2181885 0.57018,0.5658672 0.493993,0.7438136 0.781872,1.4635406 0.938755,2.3469856 0.08544,0.481118 0.09374,1.427485 0.01656,1.886178 -0.10851,0.64483 -0.299815,1.232232 -0.582873,1.789713 -0.139544,0.274832 -0.397647,0.707572 -0.466209,0.781654 -0.01035,0.01118 -0.335384,-0.296491 -0.722296,-0.683721 z"
     id="path35" />
  <path
     style="fill:#ffffff;stroke-width:0.027907"
     d="m 19.941833,17.08137 -0.693418,-0.693835 0.178147,-0.205395 c 1.104089,-1.272962 1.711556,-3.074281 1.56094,-4.628652 C 20.859771,10.235295 20.419569,9.0894201 19.636679,8.0372093 19.437436,7.7694247 18.810491,7.122072 18.410818,6.7714445 18.168112,6.5585218 18.071311,6.4008628 18.032903,6.1559382 c -0.05255,-0.3351002 0.05692,-0.6399378 0.31426,-0.8751338 0.216628,-0.1979857 0.407219,-0.2664428 0.700502,-0.2516088 0.276284,0.013974 0.403433,0.07112 0.718185,0.3227806 0.325321,0.2601107 1.030015,0.9720809 1.304325,1.3177912 1.131939,1.4265768 1.768308,3.0792818 1.896581,4.9255816 0.120621,1.736158 -0.471158,3.726338 -1.564197,5.260465 -0.195312,0.274129 -0.582877,0.748597 -0.700335,0.85737 l -0.06697,0.06202 z"
     id="path37" />
</svg>
