<?xml version="1.0" encoding="UTF-8" standalone="no"?>
<svg
   xmlns:dc="http://purl.org/dc/elements/1.1/"
   xmlns:cc="http://creativecommons.org/ns#"
   xmlns:rdf="http://www.w3.org/1999/02/22-rdf-syntax-ns#"
   xmlns:svg="http://www.w3.org/2000/svg"
   xmlns="http://www.w3.org/2000/svg"
   xmlns:sodipodi="http://sodipodi.sourceforge.net/DTD/sodipodi-0.dtd"
   xmlns:inkscape="http://www.inkscape.org/namespaces/inkscape"
   viewBox="0 0 24 24"
   version="1.1"
   id="svg19"
   sodipodi:docname="volume-onNight.svg"
   inkscape:version="1.0.2-2 (e86c870879, 2021-01-15)">
  <metadata
     id="metadata23">
    <rdf:RDF>
      <cc:Work
         rdf:about="">
        <dc:format>image/svg+xml</dc:format>
        <dc:type
           rdf:resource="http://purl.org/dc/dcmitype/StillImage" />
        <dc:title>volume-up</dc:title>
      </cc:Work>
    </rdf:RDF>
  </metadata>
  <sodipodi:namedview
     pagecolor="#ffffff"
     bordercolor="#666666"
     borderopacity="1"
     objecttolerance="10"
     gridtolerance="10"
     guidetolerance="10"
     inkscape:pageopacity="0"
     inkscape:pageshadow="2"
     inkscape:window-width="1920"
     inkscape:window-height="1027"
     id="namedview21"
     showgrid="false"
     inkscape:zoom="35.833333"
     inkscape:cx="12"
     inkscape:cy="12"
     inkscape:window-x="-8"
     inkscape:window-y="-8"
     inkscape:window-maximized="1"
     inkscape:current-layer="svg19" />
  <defs
     id="defs4">
    <style
       id="style2">.cls-1{fill:#fff;opacity:0;}.cls-2{fill:#231f20;}</style>
  </defs>
  <title
     id="title6">volume-up</title>
  <g
     id="Layer_2"
     data-name="Layer 2">
    <g
       id="volume-up">
      <g
         id="volume-up-2"
         data-name="volume-up">
        <rect
           class="cls-1"
           width="24"
           height="24"
           id="rect8" />
        <path
           class="cls-2"
           d="M18.28,8.37a1,1,0,1,0-1.56,1.26,4,4,0,0,1,0,4.74A1,1,0,0,0,17.5,16a1,1,0,0,0,.78-.37A6,6,0,0,0,18.28,8.37Z"
           id="path10" />
        <path
           class="cls-2"
           d="M19.64,5.23a1,1,0,1,0-1.28,1.54A6.8,6.8,0,0,1,21,12a6.8,6.8,0,0,1-2.64,5.23,1,1,0,0,0-.13,1.41A1,1,0,0,0,19,19a1,1,0,0,0,.64-.23A8.75,8.75,0,0,0,23,12,8.75,8.75,0,0,0,19.64,5.23Z"
           id="path12" />
        <path
           class="cls-2"
           d="M14.47,3.12a1,1,0,0,0-1,0L7,7.57H2a1,1,0,0,0-1,1v6.86a1,1,0,0,0,1,1H7l6.41,4.4A1.06,1.06,0,0,0,14,21a1,1,0,0,0,1-1V4A1,1,0,0,0,14.47,3.12Z"
           id="path14" />
      </g>
    </g>
  </g>
  <path
     style="fill:#ffffff;stroke-width:0.027907"
     d="m 13.716279,20.948829 c -0.0614,-0.02042 -0.15297,-0.05867 -0.203498,-0.085 -0.05053,-0.02633 -1.535823,-1.039122 -3.300654,-2.250648 L 7.0033434,16.410409 4.3737647,16.402879 1.744186,16.395349 1.6116067,16.334118 C 1.4138188,16.242771 1.1930283,16.019476 1.0988139,15.815508 L 1.0186047,15.64186 V 12 8.3581395 L 1.0988139,8.184492 C 1.1930283,7.9805241 1.4138188,7.7572289 1.6116067,7.6658821 L 1.744186,7.6046511 4.3738437,7.5971211 7.0035014,7.5895911 10.234309,5.366903 c 1.776944,-1.2224785 3.296251,-2.2526947 3.376237,-2.2893693 0.189773,-0.087013 0.491034,-0.091913 0.702845,-0.011431 0.295708,0.1123603 0.52896,0.3562459 0.619773,0.6480271 0.05208,0.1673438 0.05318,0.3651243 0.04614,8.3518922 l -0.0072,8.18049 -0.07861,0.16013 c -0.100675,0.205069 -0.284412,0.388216 -0.484365,0.48281 -0.190011,0.08989 -0.516856,0.1179 -0.692837,0.05938 z"
     id="path25" />
  <path
     style="fill:#ffffff;stroke-width:0.027907"
     d="m 17.204651,15.935527 c -0.22155,-0.07333 -0.425473,-0.232615 -0.537983,-0.420215 -0.122956,-0.205017 -0.154227,-0.336192 -0.139479,-0.585079 0.01409,-0.237819 0.05164,-0.324887 0.291409,-0.675767 0.276717,-0.404944 0.500335,-0.932322 0.613256,-1.446294 0.07438,-0.338549 0.07438,-1.277795 0,-1.616344 -0.115698,-0.526612 -0.332853,-1.031666 -0.639661,-1.4877137 -0.228186,-0.3391824 -0.280749,-0.488196 -0.266339,-0.7550617 0.01995,-0.3693644 0.226785,-0.6764578 0.568689,-0.8443304 0.144315,-0.070857 0.196812,-0.081388 0.403131,-0.080862 0.195552,4.981e-4 0.264388,0.013246 0.391972,0.072589 0.227213,0.1056846 0.33845,0.2175152 0.588591,0.5917312 0.66032,0.987851 1.000833,2.1146286 1.000833,3.3118196 0,0.939085 -0.189612,1.764867 -0.599554,2.611122 -0.208139,0.429669 -0.5801,0.99904 -0.744695,1.139927 -0.243594,0.208507 -0.627526,0.284651 -0.93017,0.184478 z"
     id="path27" />
  <path
     style="fill:#ffffff;stroke-width:0.027907"
     d="m 18.649031,18.919235 c -0.184147,-0.07284 -0.436605,-0.301343 -0.524446,-0.474689 -0.135896,-0.268179 -0.135516,-0.621663 9.58e-4,-0.890982 0.0432,-0.08525 0.147737,-0.204349 0.285275,-0.325009 0.67139,-0.589 1.220621,-1.206972 1.571415,-1.76809 0.719903,-1.15153 1.111967,-2.645434 1.009194,-3.845394 C 20.877102,10.280229 20.433083,9.1075831 19.636679,8.0372093 19.437436,7.7694247 18.810491,7.122072 18.410818,6.7714445 18.168112,6.5585218 18.071311,6.4008628 18.032903,6.1559382 c -0.05255,-0.3351002 0.05692,-0.6399378 0.31426,-0.8751338 0.216628,-0.1979857 0.407219,-0.2664428 0.700502,-0.2516088 0.276284,0.013974 0.403433,0.07112 0.718185,0.3227806 0.325321,0.2601107 1.030015,0.9720809 1.304325,1.3177912 1.220209,1.5378229 1.903481,3.4511596 1.903481,5.3302326 0,1.878068 -0.688492,3.806162 -1.902132,5.326843 -0.472547,0.592099 -1.315536,1.387249 -1.649437,1.555833 -0.209217,0.105633 -0.556858,0.122074 -0.773056,0.03656 z"
     id="path29" />
</svg>
